<?xml version="1.0" standalone="no"?>
<!DOCTYPE svg PUBLIC "-//W3C//DTD SVG 20010904//EN"
 "http://www.w3.org/TR/2001/REC-SVG-20010904/DTD/svg10.dtd">
<svg version="1.0" xmlns="http://www.w3.org/2000/svg"
 width="700.000000pt" height="700.000000pt" viewBox="0 0 700.000000 700.000000"
 preserveAspectRatio="xMidYMid meet">
<metadata>
Created by potrace 1.11, written by Peter Selinger 2001-2013
</metadata>
<g transform="translate(0.000000,700.000000) scale(0.100000,-0.100000)"
fill="#000000" stroke="none">
<path d="M0 6500 l0 -500 500 0 500 0 0 500 0 500 -500 0 -500 0 0 -500z"/>
<path d="M2000 6500 l0 -500 500 0 500 0 0 -3000 0 -3000 500 0 500 0 0 3000
0 3000 500 0 500 0 0 500 0 500 -1500 0 -1500 0 0 -500z"/>
<path d="M6000 3500 l0 -3500 500 0 500 0 0 3500 0 3500 -500 0 -500 0 0
-3500z"/>
<path d="M0 2500 l0 -2500 500 0 500 0 0 2500 0 2500 -500 0 -500 0 0 -2500z"/>
</g>
</svg>
