<?xml version="1.0" encoding="UTF-8" standalone="no"?>
<!-- Created with Inkscape (http://www.inkscape.org/) -->

<svg
   xmlns:dc="http://purl.org/dc/elements/1.1/"
   xmlns:cc="http://creativecommons.org/ns#"
   xmlns:rdf="http://www.w3.org/1999/02/22-rdf-syntax-ns#"
   xmlns:svg="http://www.w3.org/2000/svg"
   xmlns="http://www.w3.org/2000/svg"
   xmlns:sodipodi="http://sodipodi.sourceforge.net/DTD/sodipodi-0.dtd"
   xmlns:inkscape="http://www.inkscape.org/namespaces/inkscape"
   id="lvee_logo_green_white"
   sodipodi:version="0.32"
   inkscape:version="0.92.1 r15371"
   width="128"
   height="108"
   version="1.0"
   sodipodi:docname="lvee.svg"
   inkscape:output_extension="org.inkscape.output.svg.inkscape"
   inkscape:export-filename="green_white.png"
   inkscape:export-xdpi="303.60001"
   inkscape:export-ydpi="303.60001">
  <metadata
     id="metadata3909">
    <rdf:RDF>
      <cc:Work
         rdf:about="">
        <dc:format>image/svg+xml</dc:format>
        <dc:type
           rdf:resource="http://purl.org/dc/dcmitype/StillImage" />
        <dc:title></dc:title>
      </cc:Work>
    </rdf:RDF>
  </metadata>
  <defs
     id="defs3907">
    <inkscape:perspective
       sodipodi:type="inkscape:persp3d"
       inkscape:vp_x="0 : 526.18109 : 1"
       inkscape:vp_y="0 : 1000 : 0"
       inkscape:vp_z="744.09448 : 526.18109 : 1"
       inkscape:persp3d-origin="372.04724 : 350.78739 : 1"
       id="perspective2954" />
    <inkscape:perspective
       sodipodi:type="inkscape:persp3d"
       inkscape:vp_x="0 : 526.18109 : 1"
       inkscape:vp_y="0 : 1000 : 0"
       inkscape:vp_z="744.09448 : 526.18109 : 1"
       inkscape:persp3d-origin="372.04724 : 350.78739 : 1"
       id="perspective2464" />
    <inkscape:perspective
       id="perspective3853"
       inkscape:persp3d-origin="372.04724 : 350.78739 : 1"
       inkscape:vp_z="744.09448 : 526.18109 : 1"
       inkscape:vp_y="0 : 1000 : 0"
       inkscape:vp_x="0 : 526.18109 : 1"
       sodipodi:type="inkscape:persp3d" />
    <inkscape:perspective
       sodipodi:type="inkscape:persp3d"
       inkscape:vp_x="0 : 526.18109 : 1"
       inkscape:vp_y="0 : 1000 : 0"
       inkscape:vp_z="744.09448 : 526.18109 : 1"
       inkscape:persp3d-origin="372.04724 : 350.78739 : 1"
       id="perspective4938" />
    <inkscape:perspective
       id="perspective4936"
       inkscape:persp3d-origin="372.04724 : 350.78739 : 1"
       inkscape:vp_z="744.09448 : 526.18109 : 1"
       inkscape:vp_y="0 : 1000 : 0"
       inkscape:vp_x="0 : 526.18109 : 1"
       sodipodi:type="inkscape:persp3d" />
    <inkscape:perspective
       id="perspective2433"
       inkscape:persp3d-origin="372.04724 : 350.78739 : 1"
       inkscape:vp_z="744.09448 : 526.18109 : 1"
       inkscape:vp_y="0 : 1000 : 0"
       inkscape:vp_x="0 : 526.18109 : 1"
       sodipodi:type="inkscape:persp3d" />
    <inkscape:perspective
       id="perspective2509"
       inkscape:persp3d-origin="372.04724 : 350.78739 : 1"
       inkscape:vp_z="744.09448 : 526.18109 : 1"
       inkscape:vp_y="0 : 1000 : 0"
       inkscape:vp_x="0 : 526.18109 : 1"
       sodipodi:type="inkscape:persp3d" />
  </defs>
  <sodipodi:namedview
     inkscape:window-height="2083"
     inkscape:window-width="3840"
     inkscape:pageshadow="2"
     inkscape:pageopacity="0.0"
     guidetolerance="10.0"
     gridtolerance="10.0"
     objecttolerance="10.0"
     borderopacity="1.0"
     bordercolor="#666666"
     pagecolor="#ffffff"
     id="base"
     inkscape:zoom="6.1198265"
     inkscape:cx="61.759727"
     inkscape:cy="0.41572832"
     inkscape:window-x="0"
     inkscape:window-y="49"
     inkscape:current-layer="lvee_logo_green_white"
     width="744.09449px"
     height="1052.3622px"
     showgrid="false"
     inkscape:window-maximized="1" />
  <rect
     style="opacity:0;fill:#009933;fill-opacity:1;fill-rule:evenodd;stroke:#ffffff;stroke-width:0;stroke-miterlimit:4;stroke-dasharray:none;stroke-opacity:1"
     id="rect824"
     width="128"
     height="128"
     x="4.6857139e-07"
     y="-20.000008" />
  <g
     id="g3875"
     transform="matrix(0.21333333,0,0,0.213334,-14.933333,-54.164569)">
    <g
       transform="translate(0,40.66601)"
       id="g3871">
      <path
         inkscape:connector-curvature="0"
         id="path3857"
         d="m 407.86921,446.50361 c 1.12829,-2.3473 4.95032,-4.15171 19.21374,-11.14617 10.14204,-4.97343 11.41565,-3.08282 9.31385,-1.60766 -2.66795,1.87251 -2.38295,1.40937 -19.13666,9.90914 -6.07433,3.08171 -7.60676,3.72499 -9.39093,2.84469 z m 38.53156,1.82767 c 0.89314,-0.72223 5.572,-3.71666 6.56211,-4.40196 3.26468,-1.5742 3.75867,-0.88835 2.83894,0.44424 -1.27309,1.84461 -6.27668,5.19181 -8.7311,6.78051 -4.20712,2.61473 -5.34827,0.66974 -0.66995,-2.82279 z m 49.7053,-1.88485 c -27.61167,-9.58807 1.46324,0.85619 -27.21691,-9.78751 -6.92746,-2.57091 -5.10843,-5.99943 6.14777,-1.72213 20.46912,7.77818 32.59995,11.31951 32.59995,13.0624 0,0.90489 -1.9467,1.98342 -11.53081,-1.55276 z M 377.59084,433.20258 c 1.87981,-1.39262 23.005,-12.68361 27.05126,-13.46607 3.61539,-0.53527 2.15407,0.649 1.6344,1.50573 -1.41511,1.49038 -15.50609,8.53696 -18.85967,10.08471 -7.93478,3.66205 -13.07108,5.1974 -9.82599,1.87563 z m 63.27541,-10.15038 c -30.26196,-14.0323 -43.39668,-21.77757 -36.93119,-21.77757 1.68112,0 46.7839,22.11085 48.77094,23.9091 0.82283,0.74466 1.49607,1.67086 1.49607,2.05823 0,1.50026 -3.30198,0.46288 -13.33582,-4.18976 z m 31.09063,1.72461 c -1.30735,-0.704 -4.58474,-10.38011 -4.61836,-13.08324 -0.0269,-2.26337 1.82114,-2.35676 4.2974,6.06456 1.61742,5.50052 2.01846,8.08314 0.32096,7.01868 z m -26.71237,-11.54184 c -2.39282,-4.3281 -4.18093,-12.57557 -4.62295,-15.43121 -0.5236,-3.38285 1.53058,-2.32773 2.01642,-1.48361 1.06747,1.85462 5.07861,14.35512 4.73752,17.30691 -0.24317,1.04317 -0.42844,0.69675 -0.90322,0.58192 -0.40926,-0.13168 -0.87642,-0.72654 -1.22777,-0.97401 z m -26.64098,-18.97413 c -2.3857,-6.06085 -5.58458,-15.07542 -5.58458,-17.39259 0,-2.49904 0.78649,-2.80061 2.44601,-0.26784 1.57931,2.41032 5.56173,14.10908 6.39984,18.49261 0.70913,3.70891 -1.25678,3.41057 -3.26127,-0.83218 z M 287.06662,359.27688 c -1.63411,-1.01523 0.82698,-1.73968 6.87107,-3.76852 34.20797,-11.48267 34.05625,-6.04027 6.85796,1.04711 -5.11017,1.33161 -13.27658,4.04224 -13.72903,2.72141 z M 262.7029,342.73789 c 0.39366,-1.181 11.01823,-3.92596 16.67091,-5.5666 28.4916,-8.2694 36.31845,-6.12919 4.58955,2.18069 -7.97653,2.08907 -22.47019,6.36 -21.26046,3.38591 z m 64.72624,-6.12778 c -6.59595,-5.51076 -24.9219,-27.25537 -24.9219,-29.57103 0,-2.78059 6.77067,3.65171 19.79405,18.8048 10.87299,12.65103 13.17911,17.49288 5.12785,10.76623 z m 10.18306,-14.7748 c 2.38218,-10.92238 7.58263,-27.69453 8.50094,-29.84039 3.19177,-7.45835 2.72932,-0.1611 2.23259,1.76208 -5.5988,21.67647 -7.37449,28.53045 -8.99203,30.95111 -1.70004,2.54413 -2.72019,1.92229 -1.7415,-2.8728 z m -97.61657,-0.50863 c 0,-1.87499 33.75674,-10.08807 41.25766,-10.03806 8.20023,0.0547 -2.44177,3.44534 -27.36342,8.71832 -10.52597,2.22712 -13.89424,2.54704 -13.89424,1.31974 z m 76.58212,-21.54805 c 0.66065,-4.13147 7.42803,-31.22959 11.13316,-43.93958 2.74991,-9.43325 5.14923,-12.65905 4.58805,-6.51898 -0.46704,5.11005 -10.53167,46.12361 -13.39943,53.00832 -1.57685,3.78557 -2.95273,1.39597 -2.32178,-2.54976 z m -24.85816,-4.5419 c -12.53188,-17.20266 4.85981,8.16362 -14.59045,-21.2818 -7.83744,-11.86497 -9.06221,-16.85568 -4.75666,-13.53992 1.54493,1.18976 1.59132,0.95288 8.08701,11.66884 2.85457,4.70922 7.36149,11.6364 9.56486,15.30375 3.87372,6.44752 5.21409,8.86743 3.79495,8.86743 -0.37264,0 -0.58798,1.05294 -2.09971,-1.0183 z m -67.56123,-6.50109 c -8.13318,-1.60067 -2.34294,-2.65108 0.63987,-2.78061 14.81875,-0.63852 45.50592,-0.0868 48.32855,0.82675 5.91915,1.91579 1.35193,2.42325 -19.21601,2.31016 -12.4919,-0.0687 -21.54381,0.29786 -29.75241,-0.3563 z m 72.51445,-20.40581 c 0,-2.28521 8.11666,-36.36664 10.96631,-46.04694 1.90505,-6.47151 3.20299,-7.78453 3.20299,-3.2402 0,6.02841 -8.73302,44.00236 -11.22974,48.8305 -1.5945,3.08343 -2.93956,3.29238 -2.93956,0.45664 z"
         style="fill:#009933;fill-opacity:1"
         sodipodi:nodetypes="cssscccscccsssccccsccsssccssccssccccsssccssccssccssccsssccssccsssccsssssccsssccsssc" />
      <path
         inkscape:connector-curvature="0"
         style="fill:#884400;fill-opacity:1"
         d="m 324.38512,431.38277 c 0,-1.54103 4.98899,-12.93396 6.18951,-14.1345 0.99989,-0.99988 1.66648,-1.06068 3.32823,-0.30353 2.24559,1.02316 7.48298,9.35316 6.49922,10.33692 -0.32963,0.32965 -3.13919,1.55534 -6.24345,2.72379 -5.73801,2.15978 -9.77351,2.72847 -9.77351,1.37732 z m 10.35722,-4.5226 c 1.41792,-1.03681 1.42613,-1.25955 0.1379,-3.75071 -0.75326,-1.45663 -1.88584,-2.64841 -2.51684,-2.64841 -1.09931,0 -2.97736,4.02154 -2.97736,6.37554 0,1.4434 3.39414,1.45834 5.3563,0.0236 z m 15.15335,1.45085 c -0.93718,-2.44226 -0.51561,-9.18508 0.67625,-10.81626 0.99986,-1.3684 2.43032,-1.66302 9.27558,-1.91038 8.19911,-0.29632 9.98019,0.27477 8.98066,2.87954 -0.96219,2.5074 -14.32467,11.1655 -17.23231,11.1655 -0.65684,0 -1.42193,-0.59327 -1.70018,-1.3184 z m 9.6647,-5.4578 c 2.23597,-1.43482 3.91943,-3.02888 3.741,-3.54233 -0.48819,-1.40498 -7.90017,-1.05106 -9.40009,0.44884 -1.3923,1.39232 -0.85178,5.70225 0.71515,5.70225 0.48321,0 2.70797,-1.17395 4.94394,-2.60876 z m -47.51249,2.04798 c -3.22292,-1.58836 -5.1449,-4.87739 -5.40034,-9.24149 -0.17935,-3.06413 -0.10852,-3.14134 4.19127,-4.56789 2.40554,-0.79809 6.43754,-1.69363 8.96,-1.9901 4.49464,-0.52826 4.58629,-0.49682 4.58629,1.57309 0,2.66201 -4.56705,13.99794 -6.00778,14.91195 -1.59211,1.01007 -3.2541,0.83005 -6.32944,-0.68556 z m 7.25446,-7.2406 c 2.6463,-6.20094 1.90308,-7.02721 -4.5042,-5.0075 -2.62611,0.82782 -4.95037,1.9628 -5.16503,2.52217 -1.00391,2.61617 4.19519,8.33331 6.82034,7.4999 0.45099,-0.14317 1.73298,-2.39973 2.84889,-5.01457 z m 56.38652,-2.40886 c -0.17609,-0.57303 -0.53011,-3.08185 -0.7867,-5.57517 -0.2566,-2.49332 -1.27426,-7.25414 -2.26148,-10.57961 -2.51158,-8.4603 -2.16882,-8.98967 5.4478,-8.41363 7.88834,0.5966 9.64172,1.51819 9.64172,5.06784 0,3.59239 -2.21865,11.04333 -4.37957,14.70801 -2.84308,4.82155 -6.87734,7.34505 -7.66177,4.79256 z m 7.38969,-12.29127 c 1.65777,-5.90821 0.98577,-7.8622 -2.97642,-8.65465 -4.13134,-0.82625 -4.54725,0.28533 -2.84304,7.59852 0.82939,3.55911 1.68273,6.77064 1.8963,7.1367 0.82407,1.41241 2.58773,-1.32111 3.92316,-6.08057 z m -49.32805,1.85703 c -7.30151,-9.00759 -8.53191,-10.94837 -8.53191,-13.45789 0,-3.38463 8.28323,-3.28945 15.06063,0.17304 4.27131,2.18216 5.61823,5.17583 5.71316,12.69827 0.0694,5.49733 -1.44354,8.72872 -4.08674,8.72872 -0.96136,0 -4.07527,-3.10895 -8.15514,-8.14214 z m 9.00474,1.41184 c 1.27242,-2.37756 0.21511,-7.89064 -2.00926,-10.47662 -1.99007,-2.31359 -9.38642,-4.27024 -10.79969,-2.85698 -0.48884,0.48884 0.61411,2.44933 2.93351,5.21434 2.04429,2.43703 4.55798,5.64993 5.58599,7.13979 2.1797,3.15899 3.02028,3.35093 4.28945,0.97947 z m 16.91648,3.18797 c -2.06849,-2.31255 -4.84109,-6.90253 -7.50464,-12.42384 -2.81903,-5.84359 -1.90921,-6.80266 6.07109,-6.39966 8.552,0.43185 9.79867,1.69827 9.29949,9.44675 -0.62671,9.72829 -3.97806,13.72335 -7.86594,9.37675 z m 4.5497,-8.6632 c 0.18447,-3.83307 -0.0898,-5.43959 -1.10139,-6.45117 -1.60217,-1.60217 -7.05885,-1.8377 -7.06987,-0.30517 -0.004,0.57303 1.21486,3.55715 2.70884,6.6314 3.49554,7.19299 5.12049,7.23016 5.46242,0.12494 z m -61.08199,3.05055 c -0.65515,-1.06007 4.80936,-12.6471 6.70732,-14.22228 2.08347,-1.72912 11.19937,8.24766 9.68493,10.59954 -1.85015,2.87326 -15.05221,5.79097 -16.39225,3.62274 z m 12.65921,-4.72741 c 0.5865,-1.52844 -2.39658,-4.45436 -4.54143,-4.45436 -1.55697,0 -3.47932,2.39287 -3.51536,4.37581 -0.0374,2.05831 7.26975,2.12955 8.05679,0.0785 z m 153.19894,-0.783 c -9.28102,-2.27606 -9.03989,-5.12484 0.7256,-8.57235 7.37343,-2.60305 10.35337,-2.19425 12.36455,1.69621 0.86615,1.67551 1.65033,4.11346 1.74259,5.41768 0.16594,2.34564 0.11366,2.37298 -4.83317,2.5278 -2.75051,0.0861 -7.25032,-0.39511 -9.99957,-1.06934 z m 10.41631,-2.47592 c 0,-4.12187 -2.98513,-5.43595 -8.21051,-3.61437 -3.52683,1.22946 -3.31274,2.90412 0.50075,3.91696 4.91993,1.30672 7.70976,1.19722 7.70976,-0.30259 z m -31.74472,-0.29455 c -3.98673,-2.50431 -9.23269,-8.0515 -11.24366,-11.88925 -1.07415,-2.04992 -1.00596,-2.4328 0.81637,-4.5842 1.09363,-1.2911 4.05323,-3.45611 6.5769,-4.81114 5.73737,-3.08056 6.81871,-2.42008 7.61902,4.65369 0.31605,2.79355 1.29661,7.38185 2.17903,10.19622 0.88241,2.81437 1.60924,5.96095 1.61515,6.99239 0.0152,2.63963 -2.80377,2.43174 -7.56281,-0.55771 z m 1.90988,-4.23485 c 0.49265,-1.20259 -2.13461,-12.54462 -3.08937,-13.337 -1.69936,-1.41035 -6.65611,3.24216 -5.92117,5.55776 1.22684,3.86544 8.1613,9.85228 9.01054,7.77924 z m 42.33716,-1.69374 c 0,-4.97625 1.87903,-9.9751 3.74956,-9.9751 2.43684,0 6.02041,2.39797 9.51283,6.36557 1.89827,2.15654 3.31982,4.32577 3.159,4.82051 -0.35102,1.07991 -7.94188,2.79085 -12.87906,2.90286 l -3.54233,0.0804 v -4.1942 z m 9.8725,-0.23412 c 0.68687,-0.82761 0.29899,-1.76141 -1.5912,-3.83093 -2.04852,-2.24282 -2.72029,-2.55329 -3.72341,-1.72079 -1.24154,1.0304 -1.68517,5.07353 -0.66827,6.09043 0.96705,0.96707 5.03738,0.60056 5.98288,-0.53871 z m -118.22352,-3.48343 c -0.45976,-1.20923 -0.83591,-3.11372 -0.83591,-4.23217 0,-1.11846 -0.93768,-3.97726 -2.08373,-6.35291 -2.5587,-5.30393 -2.58183,-6.15396 -0.20837,-7.65703 3.28084,-2.0777 6.92164,-2.43706 8.51795,-0.84076 1.18461,1.18462 1.3788,2.66383 1.12721,8.58685 -0.32223,7.58602 -1.80919,11.94897 -4.23141,12.41544 -0.94283,0.18158 -1.74213,-0.48962 -2.28574,-1.91942 z m 3.99047,-13.34221 c -0.1808,-1.86654 -0.71764,-2.56798 -2.11755,-2.7668 -2.10587,-0.29908 -2.16773,-0.0768 -1.1181,4.01703 0.41137,1.60447 1.02594,4.04243 1.36569,5.41769 l 0.61773,2.50047 0.74722,-3.33396 c 0.41097,-1.83368 0.63823,-4.45918 0.50501,-5.83443 z m -45.66731,10.83158 c -10.65286,-7.0633 -11.66883,-7.89427 -11.66883,-9.5441 0,-2.17593 2.40534,-3.36349 8.62954,-4.26057 9.1268,-1.31544 12.20767,1.00871 12.20767,9.20922 0,4.75769 -1.17894,8.38406 -2.68821,8.26877 -0.58437,-0.0447 -3.50045,-1.69764 -6.48017,-3.67332 z m 6.65515,-4.78878 c -0.007,-1.48986 -0.33641,-3.21968 -0.73201,-3.84406 -1.51094,-2.38482 -12.64097,-2.94848 -12.55698,-0.63594 0.0423,1.16648 9.85413,7.08635 11.84315,7.14547 1.10134,0.0328 1.45548,-0.62012 1.44584,-2.66547 z m 17.88752,5.63532 c -4.04767,-4.29178 -10.37336,-13.3176 -10.37336,-14.80123 0,-3.10863 13.60052,-4.05402 16.50713,-1.14743 1.79038,1.7904 2.29806,10.76425 0.85394,15.09451 -1.47672,4.42802 -3.39588,4.66261 -6.98771,0.85415 z m 4.62942,-6.3364 c 0,-1.82134 -0.55315,-4.63544 -1.22924,-6.25353 -1.13503,-2.71651 -1.4699,-2.92209 -4.36889,-2.68208 -2.00273,0.16581 -3.22649,0.71947 -3.37954,1.52895 -0.30242,1.59975 7.20849,11.81162 8.22532,11.18318 0.41379,-0.25574 0.75235,-1.95517 0.75235,-3.77652 z m 88.63272,4.70618 c -4.95784,-5.11869 -6.11822,-8.08148 -4.3702,-11.15841 1.9196,-3.37895 6.9724,-6.94677 10.04396,-7.09212 l 2.79488,-0.13225 0.62185,7.91814 c 0.34202,4.35498 0.41279,9.5122 0.15729,11.46047 -0.41342,3.15258 -0.70592,3.54233 -2.65838,3.54233 -1.56266,0 -3.4585,-1.30568 -6.5894,-4.53816 z m 5.7318,-4.28716 c -0.4048,-7.01057 -1.11895,-10.34492 -2.21564,-10.34492 -1.3409,0 -5.46612,3.78547 -5.46612,5.01593 0,2.47166 5.53181,10.22864 6.95233,9.74892 0.60217,-0.20337 0.87681,-1.86751 0.72943,-4.41993 z m -150.62497,3.38361 c -1.83368,-0.66061 -3.42772,-1.20674 -3.54233,-1.21365 -0.1146,-0.007 -0.20922,-0.85646 -0.21028,-1.8879 -0.002,-1.24937 2.07834,-3.85811 6.23028,-7.81547 6.8018,-6.48302 9.16672,-7.69375 10.42732,-5.33827 1.23635,2.31012 -2.03078,13.32664 -4.6425,15.65421 -2.42946,2.16515 -3.67044,2.25542 -8.26249,0.60108 z m 7.47006,-4.81209 c 0.69152,-1.05541 1.49719,-3.11829 1.79037,-4.5842 0.72941,-3.64707 -0.80463,-3.44186 -5.50974,0.73705 -3.60225,3.1994 -3.68666,3.37942 -2.13278,4.54865 2.32746,1.75132 4.40844,1.50187 5.85215,-0.7015 z m 184.51697,1.2842 c -5.4376,-4.55363 -7.30041,-7.26907 -5.92809,-8.64141 1.17327,-1.17327 11.57359,-4.0597 14.62781,-4.0597 1.92071,0 2.58679,0.56034 3.62785,3.05195 0.78704,1.88364 1.07713,4.1077 0.75779,5.80989 -0.66623,3.55133 -4.25355,7.81067 -6.56793,7.79834 -0.9907,-0.005 -3.92355,-1.78686 -6.51743,-3.95907 z m 9.00952,-2.19455 c 1.84436,-3.86766 0.98897,-7.1726 -1.85643,-7.1726 -4.28243,0 -9.61394,1.82201 -9.34951,3.19513 0.30279,1.57224 6.96081,6.80674 8.65784,6.80674 0.65941,0 1.80605,-1.27318 2.5481,-2.82927 z m -34.47288,3.45438 c -2.68403,-2.93537 -4.45625,-7.01841 -4.98534,-11.48579 -0.42606,-3.59737 -0.20449,-4.47218 1.79744,-7.09684 5.17084,-6.77934 12.62898,-9.92261 14.63777,-6.16915 0.70747,1.32193 0.54544,2.887 -0.71189,6.87627 -0.89532,2.84064 -2.28908,7.75363 -3.09727,10.91776 -1.33908,5.24271 -3.46808,8.8331 -5.23775,8.8331 -0.3785,0 -1.45985,-0.8439 -2.40296,-1.87535 z m 5.27176,-11.24988 c 1.04896,-4.01239 2.15641,-8.13916 2.46099,-9.1706 0.9089,-3.07803 -2.53294,-2.34755 -6.53696,1.38736 -3.05532,2.84998 -3.48656,3.69215 -3.40881,6.65718 0.0607,2.31493 0.81252,4.343 2.36403,6.37714 1.25126,1.64048 2.48618,2.77153 2.74427,2.51344 0.2581,-0.2581 1.32751,-3.75213 2.37648,-7.76452 z m -55.82318,6.44858 c -3.01152,-2.64415 -8.03555,-11.55138 -8.03555,-14.24644 0,-3.28164 8.47864,-5.70261 10.64558,-3.03972 0.4663,0.57302 1.0629,4.04242 1.32576,7.70977 0.26287,3.66736 0.58364,7.75651 0.71284,9.08701 0.32733,3.37101 -1.1853,3.53024 -4.64863,0.48938 z m -0.17865,-9.94874 c -0.52061,-4.60157 -0.76272,-5.10576 -2.34339,-4.88017 -1.39621,0.19927 -1.71034,0.7446 -1.51055,2.6223 0.23232,2.18346 3.54641,8.27778 4.16503,7.65914 0.14824,-0.14822 0.009,-2.57879 -0.31109,-5.40127 z m 12.62498,0.47763 c -6.6866,-6.68661 -6.19885,-10.71564 1.96017,-16.19193 3.57238,-2.39776 6.05313,-3.50143 7.49374,-3.33396 2.01698,0.2345 2.14472,0.5146 2.01481,4.41782 -0.19021,5.71515 -4.43018,18.257 -6.28797,18.59991 -0.81762,0.15091 -3.02741,-1.33849 -5.18075,-3.49184 z m 5.85861,-7.64822 c 2.29354,-6.91954 2.38441,-7.8766 0.74788,-7.8766 -1.92105,0 -7.91814,6.42985 -7.91814,8.48954 0,1.99117 3.17311,5.87231 4.4524,5.44588 0.43876,-0.14627 1.66181,-2.87273 2.71786,-6.05882 z m -104.27162,6.94369 c -2.75051,-1.43154 -7.25134,-3.38312 -10.00186,-4.33685 -6.35453,-2.2034 -6.68868,-4.10182 -1.25023,-7.10314 3.0404,-1.6779 5.22295,-2.1344 11.52493,-2.41059 5.25594,-0.23033 8.09082,-0.0238 8.75162,0.6375 1.02396,1.0248 1.13383,11.11014 0.15465,14.1953 -0.75263,2.37129 -3.24901,2.10417 -9.17911,-0.98222 z m 6.09084,-6.28659 c 0.22574,-3.1145 0.009,-3.63175 -1.81678,-4.32573 -2.89447,-1.10047 -12.1922,0.1432 -12.1922,1.63084 0,1.06377 10.89412,6.65588 12.50233,6.41762 0.83665,-0.12395 1.33506,-1.35544 1.50665,-3.72273 z m 18.2943,2.58116 c -2.07163,-1.67993 -5.4019,-3.6585 -7.40059,-4.39681 -4.7199,-1.74352 -5.14994,-3.7304 -1.09695,-5.06801 3.55262,-1.17247 11.6875,-0.49857 16.0661,1.33092 2.67453,1.1175 2.82241,1.38221 2.36092,4.22607 -0.5012,3.08853 -3.37933,6.96228 -5.17287,6.96228 -0.54449,0 -2.68497,-1.3745 -4.75661,-3.05445 z m 6.72294,-3.88847 c 0.34413,-1.77438 -3.32405,-3.22591 -7.3066,-2.89128 l -2.96428,0.24908 4.16745,2.251 c 4.52718,2.44531 5.6906,2.51987 6.10343,0.3912 z m 124.89312,3.05331 c -1.12092,-1.12092 -0.4873,-4.9739 1.53087,-9.30911 l 2.07026,-4.44708 3.1309,1.88784 c 6.66537,4.01901 10.267,6.95718 10.0309,8.18311 -0.45974,2.38728 -14.88876,5.55942 -16.76293,3.68524 z m 7.89089,-2.91023 c 1.77225,-0.53098 3.22228,-1.45902 3.22228,-2.06232 0,-0.92805 -3.98968,-3.64017 -5.35488,-3.64017 -0.84271,0 -3.04277,5.05856 -2.54813,5.8589 0.6293,1.01824 0.77652,1.01333 4.68073,-0.15641 z m -41.25162,0.9091 c -4.78498,-3.76387 -7.0053,-11.69051 -4.09095,-14.60488 2.22018,-2.22017 11.58883,-6.33413 13.73235,-6.03013 3.45547,0.49008 2.93775,4.98823 -1.60932,13.98248 -2.19029,4.33247 -4.38775,7.99951 -4.88325,8.14899 -0.49549,0.14947 -1.91246,-0.52393 -3.14883,-1.49646 z m 4.83911,-9.73184 c 4.44698,-8.3747 4.06857,-9.2675 -2.23392,-5.27058 -5.90885,3.74729 -6.55541,6.09895 -2.93462,10.67375 1.19272,1.50697 1.8817,0.78672 5.16854,-5.40317 z m -39.96333,1.50154 c -0.91684,-0.3847 -2.54302,-1.64277 -3.61373,-2.79569 -2.32737,-2.50607 -1.81062,-3.94529 2.90228,-8.08327 8.72298,-7.65888 19.93247,-7.79649 12.56409,-0.15424 -1.62627,1.68674 -4.04695,4.94204 -5.37926,7.23403 -2.51069,4.31915 -3.64608,4.98549 -6.47338,3.79917 z m 7.88948,-12.39129 c -0.86458,-0.32613 -6.71182,3.33725 -8.21213,5.145 -0.91729,1.10525 -0.93145,1.60488 -0.0748,2.63708 0.91581,1.10348 1.585,0.68626 5.01316,-3.12559 2.17593,-2.41948 3.64913,-4.51491 3.27377,-4.65649 z m 44.73197,2.24526 c -4.89257,-5.40646 -6.51977,-8.77875 -4.76057,-9.86599 2.98037,-1.84196 19.4414,4.73915 19.90095,7.9564 0.29709,2.07991 -4.3289,5.94699 -7.99002,6.67921 -2.13135,0.42628 -2.93116,-0.10724 -7.15036,-4.76962 z m 9.00914,-0.68507 c 1.91091,-2.11153 1.27674,-2.95295 -3.43586,-4.5587 -6.86359,-2.33865 -7.71514,-1.55686 -3.51491,3.22694 2.91791,3.32332 4.81884,3.68752 6.95077,1.33176 z m -39.37756,1.82283 c -2.31297,-3.28293 -5.16652,-9.10061 -5.16652,-10.53328 0,-4.48101 18.06298,-10.00129 23.39247,-7.14904 2.41363,1.29175 1.9676,2.88305 -1.60011,5.70874 -1.76675,1.39928 -4.84066,4.71267 -6.83092,7.36306 -5.8261,7.75852 -7.14094,8.37743 -9.79492,4.61052 z m 8.08682,-8.44807 c 2.33746,-2.69815 4.24991,-5.37272 4.24991,-5.94347 0,-2.58644 -11.85481,1.68437 -12.36776,4.45559 -0.38753,2.0937 1.49645,6.39362 2.80129,6.39362 0.58667,0 2.97911,-2.20757 5.31656,-4.90574 z m -79.88171,-14.43029 c -4.94816,-2.44925 -11.12003,-8.41779 -10.74396,-10.39001 0.38262,-2.00652 3.29844,-2.36526 6.35933,-0.7824 1.34573,0.6959 4.56051,1.42394 7.14395,1.61788 7.15212,0.53688 8.50652,2.45998 5.98416,8.49685 -1.4556,3.48373 -3.3735,3.71573 -8.74348,1.05768 z m 5.59252,-3.20749 c 0.17378,-0.90243 -1.33235,-1.78312 -5.19973,-3.04051 -2.99442,-0.97356 -5.44439,-1.46435 -5.44439,-1.09066 0,1.11294 7.7599,5.90992 9.13262,5.64555 0.69676,-0.13419 1.37692,-0.81565 1.5115,-1.51438 z m 12.78839,0.38734 c -3.79451,-4.82394 -3.00794,-7.70496 2.55176,-9.34653 2.00297,-0.59141 5.29236,-2.38146 7.30977,-3.9779 2.0174,-1.59643 4.07192,-2.76985 4.56559,-2.60759 2.92149,0.96027 -0.0117,8.26656 -5.96333,14.85437 -3.45137,3.82025 -6.04653,4.15068 -8.46379,1.07765 z m 6.21001,-2.65865 c 1.88929,-1.5812 4.84713,-5.98545 4.35216,-6.48042 -0.17134,-0.17134 -1.98289,0.79718 -4.02567,2.15224 -2.04278,1.35508 -4.06293,2.58174 -4.48921,2.72593 -1.11433,0.37689 0.10042,3.08297 1.37403,3.06085 0.58741,-0.0102 1.84232,-0.66657 2.78869,-1.4586 z m -46.76021,-11.12839 c -2.48355,-2.34884 -5.46165,-5.88503 -6.618,-7.85819 -2.09325,-3.57186 -2.78126,-8.19049 -1.35168,-9.07401 0.41292,-0.25519 3.31971,0.61899 6.45953,1.94265 3.13983,1.32366 7.02151,2.66233 8.62598,2.97485 6.51976,1.26991 8.33488,2.17411 8.33488,4.15199 0,2.8642 -7.48548,12.13336 -9.79851,12.13336 -0.62514,0 -3.16862,-1.9218 -5.6522,-4.27065 z m 8.74478,-2.95498 c 0.96246,-1.22357 1.62303,-2.63009 1.46792,-3.12558 -0.32531,-1.03922 -10.07872,-4.50005 -12.93748,-4.59066 -1.91916,-0.0609 -1.91988,-0.0565 -0.41675,2.52104 2.00525,3.43851 6.59779,7.41988 8.55889,7.41988 0.86762,0 2.36495,-1.0011 3.32742,-2.22468 z m 19.20825,4.23909 c -7.88208,-4.48243 -10.42023,-8.7642 -6.15623,-10.38539 2.72777,-1.03709 18.70976,-3.14273 20.11715,-2.65044 1.50508,0.52645 1.24872,4.23403 -0.56963,8.23881 -3.30481,7.27855 -6.81595,8.53632 -13.39129,4.79702 z m 7.8808,-1.69865 c 1.88842,-0.72466 4.14534,-5.29277 3.12103,-6.31709 -1.11552,-1.11551 -13.68775,0.28893 -14.11367,1.57663 -0.33102,1.00078 3.40841,3.30361 7.27389,4.47944 1.14902,0.34952 2.15221,0.66771 2.22932,0.70712 0.0771,0.0394 0.74735,-0.16134 1.48943,-0.4461 z m 19.20757,-5.05119 c -1.37526,-0.73411 -3.92687,-2.45416 -5.67026,-3.82237 -4.28514,-3.36298 -3.87504,-5.21339 1.91955,-8.66126 2.52131,-1.50019 6.55707,-4.45506 8.96836,-6.56635 5.87006,-5.13976 7.2891,-4.80439 7.27034,1.71817 -0.0205,7.11364 -5.65482,18.81374 -9.00522,18.69993 -0.54026,-0.0184 -2.10752,-0.63401 -3.48277,-1.36812 z m 6.08209,-6.30829 c 2.00988,-3.33224 3.84752,-8.89333 3.16447,-9.57638 -0.7562,-0.7562 -12.16377,7.28657 -12.16377,8.57592 0,1.50933 3.28289,3.70931 5.53514,3.70931 1.17414,0 2.41603,-0.97113 3.46416,-2.70885 z m -52.51086,-5.87891 c -9.13206,-7.44428 -8.53478,-10.32098 2.29701,-11.06303 8.93396,-0.61204 14.04306,0.35977 14.38514,2.73621 0.31648,2.1987 -1.79365,6.53923 -4.67748,9.62155 -3.24694,3.47039 -6.60321,3.10841 -12.00467,-1.29473 z m 10.97304,-1.57128 c 3.35547,-3.60166 2.38019,-4.55891 -5.17221,-5.07656 -3.77943,-0.25906 -7.04801,-0.29465 -7.26354,-0.0791 -1.33013,1.33014 6.16188,6.93585 9.31017,6.96612 0.78438,0.008 2.1909,-0.80715 3.12558,-1.81043 z m 17.73097,-0.77059 c -3.91062,-1.9357 -7.01791,-5.29214 -6.32789,-6.83521 0.64696,-1.44678 16.36201,-8.95369 19.1615,-9.15326 3.20678,-0.2286 3.52186,2.21351 1.11567,8.64757 -3.36837,9.00695 -6.86547,10.84733 -13.94928,7.3409 z m 8.25683,-3.7876 c 2.53188,-2.88299 4.25959,-7.07755 3.30739,-8.02975 -0.62397,-0.62397 -1.32043,-0.50092 -2.36303,0.41749 -0.81306,0.71622 -3.44741,2.28897 -5.8541,3.49501 -2.40671,1.20603 -4.37581,2.70221 -4.37581,3.32486 0,0.62265 1.2014,1.71395 2.6698,2.42512 2.83482,1.37294 4.29193,1.01334 6.61575,-1.63273 z m -52.12229,-0.97684 c -0.23496,-0.38018 -0.84657,-3.28698 -1.35912,-6.45953 -1.04686,-6.47995 -0.42648,-14.16987 1.19333,-14.79143 1.46681,-0.56288 7.23272,2.14693 9.14659,4.29863 2.04692,2.30126 1.42555,5.43908 -2.44909,12.3676 -2.00225,3.58037 -3.45732,5.27599 -4.52749,5.27599 -0.86735,0 -1.76924,-0.31107 -2.00422,-0.69126 z m 5.38074,-8.81498 c 1.86639,-4.21927 1.46181,-6.1278 -1.45416,-6.85966 -2.98679,-0.74963 -3.5793,0.37484 -3.02539,5.7416 0.61072,5.9174 2.18299,6.30982 4.47955,1.11806 z m 23.70344,-1.44418 c -4.81866,-1.11296 -11.25209,-6.03881 -11.25209,-8.61534 0,-2.68059 1.50006,-3.37117 10.00185,-4.60461 13.10051,-1.90061 17.41908,-2.02348 17.99905,-0.51209 0.90765,2.36527 -0.41119,5.33997 -4.04532,9.12448 -5.40648,5.63019 -6.52285,6.0351 -12.70349,4.60756 z m 7.66431,-3.63501 c 2.16328,-1.51522 5.64995,-6.96792 4.92141,-7.69645 -0.28792,-0.28793 -2.86242,-0.0884 -5.72112,0.44341 -2.85869,0.53179 -6.97921,1.20475 -9.15669,1.49545 -4.21808,0.56314 -4.93672,1.69664 -2.48333,3.91693 3.40217,3.07893 9.40398,3.96699 12.43973,1.84066 z m 22.89144,-0.82412 c -2.8239,-3.01876 -5.13189,-6.13132 -5.12887,-6.91677 0.0127,-3.28324 6.4312,-9.93317 8.73449,-9.04931 1.60672,0.61655 4.57534,10.70677 4.81703,16.37284 0.17444,4.08957 0.008,4.61103 -1.54637,4.83304 -1.24055,0.17723 -3.21971,-1.33092 -6.87628,-5.2398 z m 5.43408,-3.19352 c -0.27139,-1.98014 -0.89146,-4.64709 -1.3779,-5.92653 -0.83065,-2.18477 -0.99763,-2.25147 -2.7454,-1.09677 -2.9132,1.92468 -2.80568,4.5818 0.31573,7.80228 1.50397,1.5517 3.08697,2.8213 3.51777,2.8213 0.44399,0 0.56953,-1.55955 0.2898,-3.60028 z m -57.5306,-10.28582 c -1.63634,-0.4638 -1.62668,-0.76798 0.33961,-10.70182 1.12636,-5.69043 1.92706,-6.88737 3.65052,-5.45702 2.56102,2.12547 8.79901,11.05453 8.79901,12.59493 0,0.85528 -0.68526,1.92181 -1.5228,2.37004 -1.88536,1.00901 -9.18829,1.7829 -11.26634,1.19387 z m 9.0803,-4.51839 c 0.6369,-1.03051 -3.57843,-5.76669 -5.1325,-5.76669 -1.16358,0 -2.3965,4.50885 -1.58983,5.81408 0.70152,1.13509 6.01468,1.09764 6.72233,-0.0473 z m 23.39241,-1.23135 c -1.01198,-2.63715 3.48399,-16.20419 5.3699,-16.20419 1.29831,0 9.11954,12.00849 9.11954,14.00188 0,1.14188 -7.62439,3.50139 -11.31418,3.50139 -1.65519,0 -2.86701,-0.49578 -3.17526,-1.29908 z m 8.76685,-3.3863 c 1.3595,-1.23034 1.38212,-1.56641 0.2526,-3.7507 -0.6824,-1.31961 -1.78407,-2.39928 -2.44814,-2.39928 -1.29164,0 -3.75069,4.07129 -3.75069,6.20978 0,1.74206 3.99964,1.70183 5.94623,-0.0598 z m -22.61144,0.35205 c -1.9101,-1.97164 -4.41953,-5.1849 -5.57651,-7.14056 -2.0166,-3.40875 -2.0456,-3.64423 -0.70145,-5.69567 2.86541,-4.37317 9.63775,-5.47784 14.41054,-2.35058 2.22136,1.45549 2.14962,2.54417 -0.77432,11.75289 -2.34526,7.38613 -3.16072,7.76669 -7.35826,3.43392 z m 5.70624,-6.84526 c 1.12201,-4.59717 1.10038,-4.99204 -0.33073,-6.03849 -2.18967,-1.60113 -4.81885,-1.3843 -7.34924,0.60611 -2.4543,1.93055 -2.23611,2.86014 1.89719,8.08263 2.99892,3.7892 4.36382,3.16366 5.78278,-2.65025 z"
         id="path2468" />
    </g>
    <path
       inkscape:connector-curvature="0"
       id="path2437"
       d="m 205.00416,522.5885 c -4.3178,0.14663 -10.23636,5.1312 -15.01728,14.90308 -7.08173,14.47452 -13.78431,46.46096 -11.87677,56.64304 0.72409,3.86522 -0.88432,19.54197 -3.5402,34.83092 -5.84961,33.67415 -6.00611,42.07195 -0.91359,47.16446 3.20063,3.2006 6.86254,3.64014 20.09916,2.51238 26.50864,-2.25843 41.51161,-11.03972 41.51161,-24.26742 0,-6.78551 -0.61417,-7.77681 -4.05409,-6.33808 -10.85349,4.53937 -32.07352,10.44927 -37.40042,10.44927 -5.88286,0 -5.9384,-0.18639 -4.73929,-14.61757 0.66836,-8.04374 4.36451,-27.76518 8.22238,-43.85268 6.7843,-28.29062 10.47637,-46.10549 13.19008,-63.20952 1.53286,-9.66156 -1.1638,-14.36448 -5.48159,-14.21788 z m 75.60025,0.51391 c -1.76163,0.11799 -4.06737,1.21029 -7.13749,2.7979 -6.24541,3.22964 -10.18051,8.71097 -13.24717,18.38616 -1.73149,5.46272 4.54008,65.54736 8.62208,82.62347 1.8459,7.722 5.64486,19.76886 8.45077,26.77982 4.24753,10.61312 4.59208,13.62419 2.2269,18.04355 -2.24815,4.20074 -2.18647,6.06666 0.17131,8.90758 1.63859,1.97437 4.39099,3.59729 6.10969,3.59729 4.59786,0 22.04056,-17.35399 22.04056,-21.92634 0,-2.15833 4.09056,-12.03778 9.07887,-21.98344 17.76158,-35.41294 30.66265,-71.87197 30.66265,-86.44917 0,-6.22619 0.45517,-6.09896 -8.85048,-2.85499 -7.43494,2.59183 -8.73568,5.37437 -11.07739,23.86774 -1.2653,9.99258 -8.98315,29.29788 -22.66865,56.52884 -11.03103,21.94915 -11.77573,21.47562 -17.24417,-11.81967 -2.80665,-17.08917 -3.50719,-32.46723 -2.68369,-58.98414 0.91624,-29.50418 0.83106,-37.86856 -4.45379,-37.5146 z m 156.68209,0.1142 c -10.07647,-0.0248 -23.47579,2.56173 -29.86324,6.50939 -18.15661,11.2214 -29.40732,28.11308 -32.77534,49.22006 -7.22641,45.28739 -9.89005,88.81995 -5.59578,91.47395 1.7267,1.06717 3.2652,3.06274 3.42599,4.3967 0.16088,1.33394 0.41002,3.08139 0.57099,3.88279 0.74308,3.70151 32.14965,-2.06229 46.36511,-8.50789 14.47437,-6.56297 26.49436,-16.18222 26.49436,-21.18402 0,-2.81784 -5.41177,-2.89466 -8.33659,-0.11421 -3.88573,3.69394 -31.36419,9.59277 -44.70922,9.59277 -12.77553,0 -12.87244,-0.006 -11.64837,-6.39519 0.67805,-3.53926 1.92148,-12.89791 2.7408,-20.78434 1.24545,-11.98838 2.40067,-14.76427 6.96619,-16.84445 5.49951,-2.50573 27.47999,-5.6066 43.05331,-6.05258 7.61371,-0.21803 8.44054,-0.88164 9.07888,-7.42299 1.13139,-11.59417 -3.90685,-14.06116 -22.32605,-10.90607 -8.49334,1.45485 -18.46869,4.88393 -22.21186,7.65139 -3.73936,2.76462 -7.37022,4.44943 -8.05108,3.76858 -2.16672,-2.16672 9.57871,-46.65138 13.64687,-51.67536 3.41209,-4.21372 6.54542,-4.79638 24.61005,-4.79638 11.37496,0 21.4376,-1.0541 22.38316,-2.34109 3.60533,-4.90731 1.80556,-15.0539 -3.14049,-17.70096 -2.23278,-1.19495 -6.09747,-1.75885 -10.67769,-1.7701 z m 116.99768,0 c -10.07648,-0.0248 -23.47579,2.56173 -29.86324,6.50939 -18.15663,11.2214 -29.40732,28.11308 -32.77534,49.22006 -7.22642,45.28739 -9.89005,88.81995 -5.59579,91.47395 1.72671,1.06717 3.2652,3.06274 3.426,4.3967 0.16088,1.33394 0.41001,3.08139 0.57099,3.88279 0.74306,3.70151 32.14965,-2.06229 46.36511,-8.50789 14.47436,-6.56297 26.49435,-16.18222 26.49435,-21.18402 0,-2.81784 -5.41177,-2.89466 -8.33658,-0.11421 -3.88574,3.69394 -31.3642,9.59277 -44.70922,9.59277 -12.77553,0 -12.87245,-0.006 -11.64837,-6.39519 0.67805,-3.53926 1.92148,-12.89791 2.74079,-20.78434 1.24545,-11.98838 2.40068,-14.76427 6.96618,-16.84445 5.49953,-2.50573 27.48,-5.6066 43.05332,-6.05258 7.61371,-0.21803 8.49764,-0.88164 9.13599,-7.42299 1.13138,-11.59417 -3.96396,-14.06116 -22.38316,-10.90607 -8.49334,1.45485 -18.46868,4.88393 -22.21186,7.65139 -3.73935,2.76462 -7.37021,4.44943 -8.05109,3.76858 -2.16669,-2.16672 9.57873,-46.65138 13.64688,-51.67536 3.41209,-4.21372 6.54542,-4.79638 24.61005,-4.79638 11.37496,0 21.4376,-1.0541 22.38316,-2.34109 3.60533,-4.90731 1.80556,-15.0539 -3.1405,-17.70096 -2.23277,-1.19495 -6.09746,-1.75885 -10.67767,-1.7701 z"
       style="fill:#009933;fill-opacity:1" />
    <path
       style="fill:#000000"
       d="m 632.35681,756.17543 c -0.76535,-1.23834 0.12438,-12.47872 1.42514,-18.00436 0.66302,-2.81658 0.65633,-2.81909 -1.77253,-0.66662 -4.00031,3.54508 -3.65513,1.62071 0.97134,-5.41511 2.3968,-3.64501 4.96513,-8.09346 5.70739,-9.88544 1.37182,-3.31184 3.35642,-4.41669 3.31324,-1.84451 -0.0131,0.77748 -1.28531,5.71318 -2.82725,10.96819 -3.45016,11.75837 -3.56619,15.71452 -0.17015,5.80149 1.3683,-3.9941 3.08687,-7.46167 3.81903,-7.70572 0.73217,-0.24405 2.15386,1.14707 3.15933,3.09142 2.35631,4.5566 5.05722,4.06169 7.62785,-1.39771 2.21807,-4.71062 6.75182,-8.2306 9.32786,-7.24209 2.76993,1.06292 1.97347,3.74847 -2.35985,7.95692 -5.79503,5.62806 -2.81079,8.898 3.89035,4.26282 5.30159,-3.66714 6.21802,-4.06257 5.12391,-2.211 -1.90222,3.21916 -9.2242,8.81097 -11.53718,8.81097 -1.28211,0 -3.07475,-1.06172 -3.98366,-2.35935 -1.40261,-2.00252 -2.02709,-2.15891 -4.12898,-1.03402 -2.08602,1.11641 -2.89007,0.93675 -5.1003,-1.13964 -2.5068,-2.35502 -2.67317,-2.37195 -3.7288,-0.37963 -0.60769,1.14696 -2.19336,5.75446 -3.5237,10.23889 -2.45556,8.27742 -3.83172,10.42187 -5.23304,8.1545 z m 3.56616,-10.91267 c -0.37579,-0.37579 -0.64308,0.29216 -0.59397,1.4843 0.0543,1.31745 0.32224,1.58542 0.68324,0.68327 0.32668,-0.81637 0.28652,-1.79178 -0.0893,-2.16757 z m 24.19656,-16.41584 c 0,-0.63086 -0.75008,-0.50839 -1.69635,0.27695 -0.93299,0.77431 -1.69634,1.91675 -1.69634,2.53875 0,0.63084 0.75008,0.50838 1.69634,-0.27696 0.933,-0.77431 1.69635,-1.91674 1.69635,-2.53874 z m -302.55606,19.62845 c 1.88964,-5.95373 15.26073,-36.71141 16.4496,-37.83921 1.06721,-1.01239 1.18914,-0.67237 0.54661,1.52419 -2.07687,7.10001 -12.16086,33.62502 -13.65039,35.90611 -2.01812,3.09056 -4.28487,3.36759 -3.34582,0.40891 z M 70.204123,746.66833 c -0.406415,-1.05911 -0.186715,-5.31265 0.488223,-9.45233 0.67493,-4.13968 1.22101,-9.12075 1.213486,-11.06904 -0.0309,-8.01562 4.384525,-18.05648 6.866413,-15.61446 0.870222,0.85622 0.406643,5.18807 -1.620217,15.13996 -3.807304,18.69394 -3.814521,18.5878 1.199254,17.64722 2.22116,-0.41669 4.765681,-1.03668 5.654507,-1.37775 0.971881,-0.37295 1.616047,0.0777 1.616047,1.13046 0,2.58803 -2.302802,3.625 -11.014821,4.96008 -2.752737,0.42185 -3.847725,0.0826 -4.402892,-1.36414 z m 122.966957,-0.86367 c 0.0486,-1.39949 -0.72813,-4.73683 -1.726,-7.4163 -0.99787,-2.67947 -2.12988,-9.31737 -2.51556,-14.75089 -0.59741,-8.41644 -0.4155,-10.16486 1.22865,-11.80902 1.06145,-1.06144 2.33973,-1.9299 2.84063,-1.9299 0.50091,0 1.12719,5.97964 1.39171,13.28809 0.26454,7.30845 1.00339,14.21397 1.64188,15.34561 0.99561,1.76458 1.68169,0.99963 4.81869,-5.37249 2.01178,-4.08651 3.94992,-9.23029 4.307,-11.43062 0.62753,-3.86705 4.87069,-8.06277 4.85655,-4.80225 -0.021,4.82842 -8.42728,25.13803 -12.18682,29.44322 -2.40976,2.75952 -4.76223,2.47387 -4.65673,-0.56545 z m 199.1511,1.18744 c -0.7464,-0.74639 -1.33932,-3.41815 -1.31763,-5.93722 0.062,-7.19202 3.0086,-21.98015 4.97889,-24.98717 3.89372,-5.94255 15.90333,-8.46624 15.90333,-3.34191 0,1.8706 -0.63203,2.19854 -3.65407,1.89608 -7.42444,-0.74307 -8.08804,5.5e-4 -11.08109,12.41731 l -0.72421,3.00439 4.97958,-1.79065 c 5.26166,-1.89208 8.78344,-1.38654 8.78344,1.26084 0,1.11424 -1.87806,1.74755 -6.25976,2.11093 -3.44287,0.28551 -6.71333,0.98466 -7.26768,1.55366 -0.55437,0.56901 -1.33547,3.27166 -1.73578,6.00591 l -0.72786,4.97134 6.45958,-0.7592 c 6.16208,-0.72423 6.90394,-1.17978 16.10613,-9.89044 5.30557,-5.02217 10.83351,-9.67207 12.28428,-10.33307 4.80765,-2.19053 4.36684,0.38443 -0.88693,5.18085 -2.84853,2.60055 -5.89468,5.70217 -6.76923,6.89249 -1.46505,1.99404 -1.41125,2.06898 0.68436,0.95293 1.25093,-0.66621 3.23821,-2.27625 4.41614,-3.57785 2.87699,-3.17904 5.18385,-3.00372 5.18385,0.39395 0,4.72984 1.86955,4.26869 8.83376,-2.17892 3.70463,-3.42985 7.36858,-6.23609 8.14208,-6.23609 1.49675,0 1.09349,8.58644 -0.61079,13.00537 -1.24865,3.23753 6.70922,-4.37259 10.93887,-10.46084 l 3.33906,-4.80633 h -5.14338 c -4.38944,0 -5.14338,-0.33155 -5.14338,-2.2618 0,-1.98425 0.75394,-2.26181 6.14374,-2.26181 5.15053,0 6.25981,-0.36565 6.86162,-2.26179 0.70931,-2.23483 2.82725,-3.18792 2.82725,-1.27228 0,0.54425 0.31807,2.57987 0.70682,4.52361 0.54089,2.70446 0.30769,3.53407 -0.99342,3.53407 -1.6185,0 -5.3679,11.56644 -5.3679,16.55935 0,2.79455 6.48587,-3.53254 8.47993,-8.27236 1.73439,-4.12259 6.53908,-7.71029 9.04031,-6.75048 2.76993,1.06292 1.97346,3.74847 -2.35986,7.95692 -4.00847,3.893 -4.31001,6.33918 -0.78139,6.33918 2.64946,0 9.03513,-5.21349 10.73838,-8.76718 1.94181,-4.05145 4.96261,-4.49382 8.43174,-1.23475 2.46057,2.31158 2.7249,3.2808 2.10982,7.73594 l -0.70316,5.09325 7.20117,-7.63358 c 3.96064,-4.19847 7.8561,-7.63358 8.65657,-7.63358 1.55341,0 1.25615,5.37174 -0.53194,9.61265 -0.70773,1.67856 0.1501,1.29887 3.32668,-1.47243 4.82747,-4.21155 6.2588,-4.18908 8.36505,0.13138 1.41879,2.91028 1.56803,2.95136 4.27617,1.17693 4.36173,-2.85791 4.25703,-1.22112 -0.19629,3.06867 l -4.02877,3.88085 -2.53405,-3.15338 c -3.03187,-3.77288 -5.01903,-3.31298 -9.16353,2.12073 -3.43383,4.502 -6.80652,5.26037 -5.84979,1.31538 2.5032,-10.32182 2.85275,-9.89981 -3.39321,-4.09678 -5.22226,4.85192 -10.01323,7.55454 -11.23182,6.33595 -0.28152,-0.28153 0.0112,-1.88783 0.65067,-3.56957 3.09239,-8.13356 -0.45865,-12.60862 -5.19889,-6.55173 -3.28497,4.19742 -9.43206,8.16486 -12.65051,8.16486 -1.2908,0 -3.08328,-1.05131 -3.98327,-2.33623 -1.62374,-2.31822 -1.66785,-2.30859 -5.72169,1.25072 -5.67544,4.98311 -7.92634,3.95075 -7.22818,-3.31517 l 0.52785,-5.49353 -3.69481,3.69482 c -2.03215,2.03215 -5.55432,5.11313 -7.82706,6.84664 -3.40551,2.5975 -4.3122,2.86747 -5.15543,1.535 -1.57178,-2.48369 -1.25273,-6.70586 0.5067,-6.70586 1.52712,0 3.20413,-5.0325 2.05872,-6.17791 -0.31712,-0.31712 -2.77742,1.45209 -5.46733,3.93157 -5.50802,5.07712 -8.43937,5.63718 -10.81085,2.06556 l -1.62181,-2.44257 -2.19156,2.28922 c -4.52859,4.73042 -10.66595,6.02419 -9.08953,1.91609 0.33389,-0.87008 0.24134,-1.56577 -0.20563,-1.54599 -1.41795,0.0628 -4.77083,2.99523 -4.77083,4.17264 0,1.25275 -11.51723,5.96951 -14.57617,5.96951 -1.06424,0 -2.54568,-0.61069 -3.29207,-1.35709 z m 84.59139,-18.14518 c 0,-0.63086 -0.75009,-0.50839 -1.69636,0.27695 -0.93299,0.77431 -1.69635,1.91675 -1.69635,2.53875 0,0.63084 0.75007,0.50838 1.69635,-0.27696 0.933,-0.77431 1.69636,-1.91674 1.69636,-2.53874 z m 70.34203,18.14518 c -0.74639,-0.74639 -1.33932,-3.41815 -1.31762,-5.93722 0.062,-7.19202 3.00861,-21.98015 4.97889,-24.98717 3.89371,-5.94255 15.90332,-8.46624 15.90332,-3.34191 0,1.8706 -0.63202,2.19854 -3.65406,1.89608 -7.42445,-0.74307 -8.08804,5.5e-4 -11.08109,12.41731 l -0.7242,3.00439 4.97956,-1.79065 c 5.26168,-1.89208 8.78344,-1.38654 8.78344,1.26084 0,1.11424 -1.87806,1.74755 -6.25975,2.11093 -3.44287,0.28551 -6.71332,0.98466 -7.26768,1.55366 -0.55438,0.56901 -1.33547,3.27166 -1.73579,6.00591 l -0.72786,4.97134 6.58192,-0.73901 c 6.91114,-0.77597 8.14516,-1.70092 18.74781,-14.05234 3.38969,-3.94877 6.12902,-4.89589 4.78387,-1.65401 -1.81053,4.36343 -3.0618,10.58835 -2.2814,11.34961 0.45532,0.44417 2.69859,-1.35529 4.98504,-3.99877 2.28646,-2.64347 4.46138,-4.80632 4.83317,-4.80632 0.37178,0 0.98131,1.52671 1.35451,3.3927 0.37319,1.86599 1.16551,3.3927 1.76071,3.3927 1.02417,0 3.67233,-3.48625 6.44644,-8.48661 1.8127,-3.2674 4.76262,-3.40946 7.98263,-0.38442 2.47188,2.32221 2.72369,3.2603 2.07652,7.73594 l -0.73648,5.09325 7.74635,-7.63358 c 4.2605,-4.19847 8.39976,-7.63358 9.19835,-7.63358 0.7986,0 1.1668,0.46143 0.81824,1.02542 -0.34857,0.564 0.29308,0.78306 1.42589,0.48684 1.1328,-0.29624 2.71704,0.25353 3.52053,1.22168 4.42154,5.32761 -7.74854,18.52806 -13.03608,14.13979 -0.87351,-0.72493 -1.58819,-2.32629 -1.58819,-3.55855 0,-2.00634 -0.4059,-1.88411 -3.88385,1.16959 -3.79781,3.3345 -8.21733,5.45624 -9.23838,4.43518 -0.28153,-0.28153 0.0112,-1.88783 0.65067,-3.56957 3.29073,-8.65529 -0.41356,-12.41507 -5.79709,-5.88392 -4.89551,5.93911 -7.18782,6.92042 -9.87911,4.22912 -2.16455,-2.16456 -2.22215,-2.15151 -5.18549,1.17433 -3.45825,3.88129 -6.43185,3.84482 -7.3608,-0.0903 -0.93956,-3.98003 -2.74505,-4.02319 -6.00944,-0.1437 -2.79325,3.3196 -12.39774,7.98211 -16.44266,7.98211 -1.09656,0 -2.60444,-0.61069 -3.35084,-1.35709 z m 77.06108,-10.23773 c 1.78863,-2.39795 2.01444,-3.42064 0.983,-4.45209 -1.70712,-1.70711 -7.02348,2.94718 -7.02348,6.14885 0,3.02284 3.1881,2.12732 6.04048,-1.69676 z m -517.96673,5.65758 c 0.33939,-1.39948 0.9864,-4.05466 1.4378,-5.9004 l 0.82073,-3.35585 -4.91148,4.20403 c -5.743901,4.91658 -8.580149,5.29333 -10.364631,1.3768 -1.319807,-2.89667 -3.640958,-3.70649 -4.879526,-1.70244 -0.382351,0.61865 -1.723166,1.67499 -2.979602,2.34742 -2.013971,1.07783 -2.151389,0.97814 -1.160729,-0.84211 1.896326,-3.48437 8.962482,-9.71165 10.171806,-8.96425 0.627889,0.38806 1.475644,2.22643 1.88392,4.08529 0.408268,1.85886 1.288832,3.37973 1.956817,3.37973 0.667975,0 3.904965,-2.54452 7.193305,-5.65451 3.28835,-3.10997 6.57385,-5.65449 7.30112,-5.65449 1.41797,0 1.03129,5.58946 -0.66501,9.61265 -0.70772,1.67856 0.15011,1.29887 3.32669,-1.47243 4.82468,-4.20912 6.25903,-4.18852 8.3596,0.12002 1.74024,3.56943 3.67384,2.80282 8.14801,-3.23052 2.58018,-3.4793 5.44291,-5.61829 6.33089,-4.73033 0.19394,0.19395 -0.36547,2.36877 -1.24314,4.83294 -3.31759,9.31455 -1.57923,10.97625 4.09544,3.91487 3.94662,-4.91105 5.50885,-5.62912 5.53583,-2.54453 0.009,1.0885 0.49163,2.7291 1.07134,3.6458 1.77647,2.80914 6.55991,-2.51837 5.95594,-6.63339 -0.58928,-4.0151 1.44438,-5.54037 3.1465,-2.35993 1.23728,2.31189 1.32009,2.29434 5.18515,-1.09923 4.48865,-3.94108 5.5797,-4.20219 6.58731,-1.57647 0.65456,1.70577 -3.84871,9.72271 -6.31906,11.24948 -1.51868,0.93858 -1.08878,2.41296 0.92938,3.1874 1.12583,0.43203 3.61355,-0.48838 6.24044,-2.3088 6.33815,-4.39235 6.57145,-2.51397 0.28404,2.28684 -5.52155,4.21601 -8.19406,4.95026 -10.31137,2.83295 -0.89431,-0.89431 -2.05151,-0.70196 -4.18433,0.69552 -3.55268,2.32781 -3.84692,1.07769 -0.56786,-2.41271 3.92168,-4.17443 1.35728,-5.50004 -3.08855,-1.59654 -3.20137,2.81085 -4.3258,3.22541 -6.12975,2.25996 -1.21505,-0.65028 -2.21155,-1.80056 -2.21443,-2.55615 -0.003,-0.75562 -1.55538,0.28009 -3.45002,2.30158 -3.56429,3.80294 -6.48303,4.71788 -7.2153,2.2618 -1.72848,-5.79746 -1.47351,-5.65779 -5.24716,-2.87407 l -3.51287,2.59134 -2.51898,-3.15338 c -3.01478,-3.77402 -5.00404,-3.31288 -9.14846,2.12073 -3.43385,4.502 -6.80654,5.26037 -5.8498,1.31538 z m 57.93442,-15.29647 c -0.99119,-0.9912 -5.1574,3.31776 -5.11824,5.29365 0.0255,1.28674 0.85252,0.87494 2.88524,-1.43667 1.56724,-1.78227 2.57209,-3.5179 2.233,-3.85698 z m 110.5862,16.09075 c -0.36939,-0.96264 -0.39746,-3.79435 -0.0623,-6.29267 l 0.60927,-4.54242 -3.91475,4.03086 c -4.48213,4.61511 -7.35275,5.08636 -9.67539,1.58829 l -1.62181,-2.44257 -2.19156,2.28922 c -4.58693,4.79135 -10.66194,6.0137 -9.05328,1.8216 0.35383,-0.92206 0.26129,-1.49495 -0.20563,-1.27309 -0.46691,0.22184 -3.2453,1.62786 -6.17417,3.12449 -4.49188,2.29528 -5.77496,2.5162 -8.19903,1.41172 -1.58061,-0.72017 -2.87381,-2.08366 -2.87381,-3.02999 0,-1.94024 -1.76504,-2.30839 -2.82726,-0.5897 -1.2076,1.95395 -4.74551,1.2328 -6.43499,-1.31168 l -1.62182,-2.44257 -2.19154,2.28922 c -4.52861,4.73042 -10.66597,6.02419 -9.08955,1.91609 0.74096,-1.93089 -0.64562,-2.06774 -2.46963,-0.24373 -0.73604,0.73604 -1.62047,1.056 -1.96542,0.71105 -0.81266,-0.81264 15.06847,-15.55004 18.40596,-17.08036 4.72889,-2.16835 4.23831,0.45393 -0.97539,5.21376 -2.84853,2.60055 -5.89467,5.70217 -6.76923,6.89249 -1.46505,1.99404 -1.41124,2.06898 0.68436,0.95293 1.25095,-0.66621 3.23822,-2.27625 4.41616,-3.57785 2.83187,-3.12917 5.18384,-3.00568 5.18384,0.27221 0,1.45133 0.30787,2.94663 0.68413,3.32291 0.37628,0.37627 4.31669,-2.08344 8.75646,-5.46602 7.48422,-5.70208 10.94082,-7.38371 10.89833,-5.30198 -0.0304,1.48563 -1.5653,3.14412 -5.97544,6.4563 -2.97285,2.23274 -4.1922,3.95267 -3.95816,5.58318 0.62689,4.36724 3.93555,3.09054 15.6769,-6.04919 6.42987,-5.00515 12.35206,-9.10027 13.16044,-9.10027 2.58621,0 1.58385,2.05969 -2.52901,5.19673 -2.19934,1.67751 -5.07491,4.56129 -6.39017,6.40838 -2.21321,3.10818 -2.23031,3.27217 -0.22942,2.20133 1.18906,-0.63637 3.1257,-2.22198 4.30363,-3.52358 2.87699,-3.17904 5.18385,-3.00372 5.18385,0.39395 0,1.51828 0.42827,3.02519 0.95171,3.34871 1.06354,0.65729 6.41081,-4.73962 10.25487,-10.35009 l 2.51825,-3.67543 h -5.16606 c -4.41213,0 -5.16607,-0.33009 -5.16607,-2.2618 0,-1.98425 0.75394,-2.26181 6.14375,-2.26181 5.15053,0 6.25981,-0.36565 6.86162,-2.26179 0.70931,-2.23483 2.82725,-3.18792 2.82725,-1.27228 0,0.54425 0.31807,2.57987 0.70681,4.52361 0.54089,2.70446 0.3077,3.53407 -0.99342,3.53407 -1.14807,0 -2.29577,2.3709 -3.53406,7.30055 -2.91075,11.58773 -2.56862,12.00771 4.27566,5.24845 3.36022,-3.31849 6.62896,-5.71257 7.26385,-5.32018 0.63489,0.39238 1.48839,2.2343 1.89668,4.09316 0.40825,1.85886 1.36364,3.37973 2.12305,3.37973 0.75942,0 4.23564,-2.54452 7.72495,-5.65451 5.61424,-5.00388 10.07705,-7.49026 8.30873,-4.62907 -0.34856,0.564 0.2931,0.78306 1.42589,0.48684 1.1328,-0.29624 2.71705,0.25353 3.52054,1.22168 4.37721,5.2742 -7.73812,18.53672 -12.9682,14.19614 -0.83615,-0.69396 -1.67806,-2.29338 -1.87091,-3.5543 -0.34979,-2.28725 -0.35757,-2.28707 -3.35624,0.0821 -3.86869,3.0566 -6.19889,3.0062 -7.85132,-0.16982 -0.72813,-1.39949 -1.50659,-2.75378 -1.72993,-3.00952 -0.22332,-0.25576 -2.91744,1.65264 -5.98693,4.24087 -6.043,5.09553 -7.7079,5.65823 -8.74498,2.95562 z m 38.44833,-6.45186 c 1.78863,-2.39795 2.01445,-3.42064 0.98301,-4.45209 -1.70712,-1.70711 -7.02349,2.94718 -7.02349,6.14885 0,3.02284 3.18809,2.12732 6.04048,-1.69676 z m 11.29493,5.65758 c 0.33939,-1.39948 0.98013,-4.02958 1.42383,-5.84467 l 0.80674,-3.30016 -4.6935,3.7718 c -2.58141,2.07449 -4.91956,3.54574 -5.19587,3.26943 -0.81628,-0.8163 12.38692,-14.57718 13.98642,-14.57718 1.56245,0 1.27088,5.35778 -0.52309,9.61265 -0.70773,1.67856 0.15011,1.29887 3.3267,-1.47243 4.82746,-4.21155 6.25878,-4.18908 8.36504,0.13138 1.41879,2.91028 1.56803,2.95136 4.27617,1.17693 4.36172,-2.85791 4.25702,-1.22112 -0.19628,3.06867 l -4.02879,3.88085 -2.53405,-3.15338 c -3.03186,-3.77288 -5.01902,-3.31298 -9.16352,2.12073 -3.43383,4.502 -6.80653,5.26037 -5.8498,1.31538 z M 92.407239,719.57533 c 0,-1.57373 4.102455,-5.15318 5.906139,-5.15318 1.52135,0 0.955805,3.15461 -0.897869,5.00828 -2.225261,2.22527 -5.00827,2.3058 -5.00827,0.1449 z m 197.907671,0 c 0,-1.57373 4.10245,-5.15318 5.90614,-5.15318 1.52134,0 0.9558,3.15461 -0.89787,5.00828 -2.22526,2.22527 -5.00827,2.3058 -5.00827,0.1449 z"
       id="path2513"
       inkscape:connector-curvature="0" />
  </g>
</svg>
