<?xml version="1.0" encoding="UTF-8" standalone="no"?>
<svg
   xmlns:dc="http://purl.org/dc/elements/1.1/"
   xmlns:cc="http://creativecommons.org/ns#"
   xmlns:rdf="http://www.w3.org/1999/02/22-rdf-syntax-ns#"
   xmlns:svg="http://www.w3.org/2000/svg"
   xmlns="http://www.w3.org/2000/svg"
   xmlns:sodipodi="http://sodipodi.sourceforge.net/DTD/sodipodi-0.dtd"
   xmlns:inkscape="http://www.inkscape.org/namespaces/inkscape"
   height="64"
   width="137"
   version="1.1"
   id="svg4667"
   sodipodi:docname="bsd.svg"
   inkscape:version="0.92.1 r15371">
  <metadata
     id="metadata4673">
    <rdf:RDF>
      <cc:Work
         rdf:about="">
        <dc:format>image/svg+xml</dc:format>
        <dc:type
           rdf:resource="http://purl.org/dc/dcmitype/StillImage" />
        <dc:title></dc:title>
      </cc:Work>
    </rdf:RDF>
  </metadata>
  <defs
     id="defs4671" />
  <sodipodi:namedview
     pagecolor="#ffffff"
     bordercolor="#666666"
     borderopacity="1"
     objecttolerance="10"
     gridtolerance="10"
     guidetolerance="10"
     inkscape:pageopacity="0"
     inkscape:pageshadow="2"
     inkscape:window-width="3840"
     inkscape:window-height="2083"
     id="namedview4669"
     showgrid="false"
     inkscape:zoom="3.3698882"
     inkscape:cx="75"
     inkscape:cy="32.642033"
     inkscape:window-x="0"
     inkscape:window-y="49"
     inkscape:window-maximized="1"
     inkscape:current-layer="svg4667" />
  <g
     id="g5234">
    <path
       style="fill:#990000;stroke-width:0.91386664"
       inkscape:connector-curvature="0"
       id="path4661"
       d="M 70.066155,63.614359 C 78.470529,62.650504 86.286374,54.536647 84.924713,45.887174 84.349406,42.226498 81.950168,38.452503 77.981337,35.82733 74.878394,33.774694 59.723195,26.609157 57.063843,24.767716 55.433597,23.5191 52.233875,20.097583 51.998098,17.892058 51.35861,11.948817 54.602709,9.4059833 57.891167,7.8852183 c 1.353619,-0.638318 3.105227,-0.87171 3.824075,-0.955722 6.134604,-0.716508 8.125462,0.397934 13.736329,3.059717 0.577637,0.2730627 1.151746,0.2870727 1.773724,0.1890427 1.886952,-0.2964037 3.1904,-1.1237817 2.894033,-3.0095457 -0.22207,-1.399952 -1.000684,-2.040573 -2.461957,-2.765269 C 73.745108,2.4686027 66.410414,0.14994032 60.231762,1.1219288 c -0.103861,0.01517 -0.204213,0.037343 -0.306904,0.05368 l -0.01517,-0.086354 C 51.337619,2.5153433 44.543934,10.267217 45.897371,18.869443 c 0.728178,4.623434 4.285029,8.496584 7.921213,10.863133 2.435455,2.042126 11.235076,5.579156 19.944225,10.407113 3.08887,1.713043 4.335201,3.405159 4.788022,7.236271 0.470276,3.974588 -4.134516,8.490734 -7.73451,9.856965 -5.596702,1.640756 -12.173618,-0.686168 -16.556522,-3.004885 -1.308109,-0.85187 -1.909159,-1.302351 -3.113452,-1.112084 -1.884668,0.297573 -3.172945,2.066709 -2.877675,3.952473 0.198382,1.254465 0.920721,2.134336 2.149506,2.67699 7.794094,3.430838 13.050015,4.62581 19.648132,3.869585 z" />
    <path
       style="fill:#990000;stroke-width:0.91386664"
       inkscape:connector-curvature="0"
       id="path4663"
       d="M 15.899452,1.0271934e-4 C 15.752319,-7.2280664e-5 15.599703,0.05552692 15.46171,0.10950172 6.9338717,1.0654976 0.25679652,8.1654193 0,16.884437 H 0.10939897 C 0.10344197,16.969627 0.07293204,17.052479 0.07293204,17.14 v 43.322762 c 0,1.596159 1.05533316,2.883066 2.40685056,3.136207 0.024598,0.0046 0.048126,0.03257 0.072934,0.03646 0.3652633,0.127603 0.7869671,0.182608 1.2033796,0.182334 H 28.334539 v 0.182339 c 10.048878,-0.02451 18.197827,-8.176822 18.197827,-18.233467 0,-8.13058 -5.341368,-15.004776 -12.690866,-17.357983 3.122773,-3.004702 5.069035,-7.212784 5.069035,-11.888491 0,-8.8316987 -6.928206,-16.03287598 -15.644483,-16.48341218 -0.06068,-0.00826 -0.121361,-0.035008 -0.183212,-0.035008 H 15.899117 Z M 16.154722,5.7253853 h 6.600493 c 5.573947,0.574749 9.919109,5.1798877 9.919109,10.7945927 0,5.427363 -4.065793,9.90997 -9.371703,10.721484 H 8.7520368 C 7.7564705,26.894192 6.912606,26.185032 6.4181128,25.271165 6.0925935,24.676238 5.9076269,23.991752 5.9076269,23.266142 V 22.427541 H 5.7981914 v -5.287632 c 0,-0.159854 -0.016543,-0.320502 -0.036467,-0.474078 C 6.1217879,10.976098 10.536221,6.4049373 16.154216,5.7990433 v -0.07294 z M 28.33565,33.002477 v 0.109399 c 6.811505,0.105021 12.288765,5.671182 12.288765,12.508092 0,6.835997 -5.477899,12.367358 -12.288765,12.472452 v 0.03646 H 5.7996992 V 37.342987 h 0.109399 V 36.50424 c 0,-0.725838 0.1849575,-1.409456 0.5105408,-2.005754 0.3142787,-0.58122 0.7721259,-1.083846 1.3127694,-1.458532 H 27.934344 c 0.136715,0 0.269472,-0.01815 0.401142,-0.03646 z" />
    <path
       style="fill:#990000;stroke-width:0.91386664"
       inkscape:connector-curvature="0"
       id="path4665"
       d="m 100.53242,1.2765002 v 0.036467 h -0.14587 c -5.16846,0 -9.41465,3.9627081 -9.88255,9.0074348 V 59.87939 c 0,1.581446 1.037239,2.903171 2.370296,3.17267 0.07055,0.01426 0.146566,0.02818 0.218798,0.03646 0.07421,0.009 0.142591,0.03646 0.218807,0.03646 0.02403,6.78e-4 0.04871,0 0.07293,0 h 12.872719 c 0.025,0 0.0805,10e-4 0.1094,0 16.98147,-0.385094 30.63281,-14.056183 30.63281,-30.887778 0,-16.653392 -13.3525,-30.2288807 -30.0854,-30.8877785 -0.27657,-0.033841 -0.50704,-0.072934 -0.65641,-0.072934 h -5.72529 z m -1.021067,5.2876321 h 9.481367 c 12.91385,1.624398 22.9015,12.5035237 22.9015,25.6732557 0,13.080173 -9.86062,23.863799 -22.64562,25.600146 H 99.694127 C 98.431529,57.566801 97.340372,56.781469 96.745262,55.685652 96.420848,55.088175 96.270316,54.40432 96.270316,53.679623 v -0.838746 h -0.03646 V 10.574545 c 0.0073,-0.7130077 0.190797,-1.4199657 0.510541,-2.0057547 0.572976,-1.056064 1.563717,-1.81366 2.771483,-2.07859 z" />
  </g>
</svg>
